<svg xmlns="http://www.w3.org/2000/svg" xmlns:xlink="http://www.w3.org/1999/xlink" width="1080" zoomAndPan="magnify" viewBox="0 0 810 540.000001" height="720" preserveAspectRatio="xMidYMid meet" version="1.0"><defs><clipPath id="16f837ae55"><path d="M 161.175781 25.675781 L 648.523438 25.675781 L 648.523438 513.023438 L 161.175781 513.023438 Z M 161.175781 25.675781 " clip-rule="nonzero"/></clipPath><clipPath id="61bfd7a685"><path d="M 267 25.675781 L 299 25.675781 L 299 95 L 267 95 Z M 267 25.675781 " clip-rule="nonzero"/></clipPath></defs><g clip-path="url(#16f837ae55)"><path fill="#000000" d="M 625.679688 513.023438 L 184.019531 513.023438 C 183.269531 513.023438 182.523438 512.988281 181.78125 512.914062 C 181.035156 512.839844 180.296875 512.730469 179.5625 512.585938 C 178.828125 512.4375 178.105469 512.257812 177.386719 512.039062 C 176.671875 511.824219 175.96875 511.570312 175.277344 511.285156 C 174.585938 511 173.910156 510.679688 173.25 510.328125 C 172.589844 509.972656 171.949219 509.589844 171.328125 509.171875 C 170.707031 508.757812 170.105469 508.3125 169.527344 507.839844 C 168.949219 507.363281 168.394531 506.863281 167.867188 506.332031 C 167.335938 505.804688 166.835938 505.25 166.359375 504.671875 C 165.886719 504.09375 165.441406 503.492188 165.023438 502.871094 C 164.609375 502.25 164.226562 501.609375 163.871094 500.949219 C 163.519531 500.289062 163.199219 499.613281 162.914062 498.921875 C 162.628906 498.230469 162.375 497.527344 162.160156 496.8125 C 161.941406 496.09375 161.761719 495.371094 161.613281 494.636719 C 161.46875 493.902344 161.359375 493.164062 161.285156 492.417969 C 161.210938 491.671875 161.175781 490.925781 161.175781 490.179688 L 161.175781 48.519531 C 161.175781 47.773438 161.210938 47.027344 161.285156 46.28125 C 161.359375 45.535156 161.46875 44.796875 161.613281 44.0625 C 161.761719 43.328125 161.941406 42.605469 162.160156 41.890625 C 162.375 41.171875 162.628906 40.46875 162.914062 39.777344 C 163.199219 39.085938 163.519531 38.410156 163.871094 37.75 C 164.226562 37.09375 164.609375 36.449219 165.023438 35.828125 C 165.441406 35.207031 165.886719 34.605469 166.359375 34.027344 C 166.835938 33.449219 167.335938 32.894531 167.867188 32.367188 C 168.394531 31.839844 168.949219 31.335938 169.527344 30.863281 C 170.105469 30.386719 170.707031 29.941406 171.328125 29.527344 C 171.949219 29.109375 172.589844 28.726562 173.25 28.375 C 173.910156 28.019531 174.585938 27.703125 175.277344 27.414062 C 175.96875 27.128906 176.671875 26.878906 177.386719 26.660156 C 178.105469 26.441406 178.828125 26.261719 179.5625 26.113281 C 180.296875 25.96875 181.035156 25.859375 181.78125 25.785156 C 182.523438 25.710938 183.269531 25.675781 184.019531 25.675781 L 625.679688 25.675781 C 626.425781 25.675781 627.171875 25.710938 627.917969 25.785156 C 628.660156 25.859375 629.402344 25.96875 630.136719 26.113281 C 630.867188 26.261719 631.59375 26.441406 632.308594 26.660156 C 633.027344 26.878906 633.730469 27.128906 634.421875 27.414062 C 635.113281 27.703125 635.789062 28.019531 636.445312 28.375 C 637.105469 28.726562 637.746094 29.109375 638.371094 29.527344 C 638.992188 29.941406 639.59375 30.386719 640.171875 30.863281 C 640.75 31.335938 641.300781 31.839844 641.832031 32.367188 C 642.359375 32.894531 642.863281 33.449219 643.335938 34.027344 C 643.8125 34.605469 644.257812 35.207031 644.671875 35.828125 C 645.089844 36.449219 645.472656 37.09375 645.824219 37.75 C 646.179688 38.410156 646.496094 39.085938 646.785156 39.777344 C 647.070312 40.46875 647.320312 41.171875 647.539062 41.890625 C 647.757812 42.605469 647.9375 43.328125 648.082031 44.0625 C 648.230469 44.796875 648.339844 45.535156 648.414062 46.28125 C 648.484375 47.027344 648.523438 47.773438 648.523438 48.519531 L 648.523438 490.179688 C 648.523438 490.925781 648.484375 491.671875 648.414062 492.417969 C 648.339844 493.164062 648.230469 493.902344 648.082031 494.636719 C 647.9375 495.371094 647.757812 496.09375 647.539062 496.8125 C 647.320312 497.527344 647.070312 498.230469 646.785156 498.921875 C 646.496094 499.613281 646.179688 500.289062 645.824219 500.949219 C 645.472656 501.609375 645.089844 502.25 644.671875 502.871094 C 644.257812 503.492188 643.8125 504.09375 643.335938 504.671875 C 642.863281 505.25 642.359375 505.804688 641.832031 506.332031 C 641.300781 506.863281 640.75 507.363281 640.171875 507.839844 C 639.59375 508.3125 638.992188 508.757812 638.371094 509.171875 C 637.746094 509.589844 637.105469 509.972656 636.445312 510.328125 C 635.789062 510.679688 635.113281 511 634.421875 511.285156 C 633.730469 511.570312 633.027344 511.824219 632.308594 512.039062 C 631.59375 512.257812 630.867188 512.4375 630.136719 512.585938 C 629.402344 512.730469 628.660156 512.839844 627.917969 512.914062 C 627.171875 512.988281 626.425781 513.023438 625.679688 513.023438 Z M 184.019531 40.90625 C 183.519531 40.90625 183.023438 40.953125 182.535156 41.050781 C 182.042969 41.148438 181.566406 41.292969 181.105469 41.484375 C 180.644531 41.675781 180.203125 41.910156 179.789062 42.1875 C 179.375 42.46875 178.988281 42.78125 178.636719 43.136719 C 178.28125 43.488281 177.964844 43.875 177.6875 44.289062 C 177.410156 44.707031 177.175781 45.144531 176.984375 45.605469 C 176.792969 46.070312 176.648438 46.542969 176.550781 47.035156 C 176.453125 47.527344 176.40625 48.019531 176.40625 48.519531 L 176.40625 490.179688 C 176.40625 490.679688 176.453125 491.175781 176.550781 491.664062 C 176.648438 492.15625 176.792969 492.632812 176.984375 493.09375 C 177.175781 493.554688 177.410156 493.992188 177.6875 494.410156 C 177.964844 494.824219 178.28125 495.210938 178.636719 495.5625 C 178.988281 495.917969 179.375 496.234375 179.789062 496.511719 C 180.203125 496.789062 180.644531 497.023438 181.105469 497.214844 C 181.566406 497.40625 182.042969 497.550781 182.535156 497.648438 C 183.023438 497.746094 183.519531 497.792969 184.019531 497.792969 L 625.679688 497.792969 C 626.179688 497.792969 626.671875 497.746094 627.164062 497.648438 C 627.652344 497.550781 628.128906 497.40625 628.59375 497.214844 C 629.054688 497.023438 629.492188 496.789062 629.910156 496.511719 C 630.324219 496.234375 630.710938 495.917969 631.0625 495.5625 C 631.417969 495.210938 631.730469 494.824219 632.007812 494.410156 C 632.289062 493.992188 632.523438 493.554688 632.714844 493.09375 C 632.90625 492.632812 633.050781 492.15625 633.148438 491.664062 C 633.246094 491.175781 633.292969 490.679688 633.292969 490.179688 L 633.292969 48.519531 C 633.292969 48.019531 633.246094 47.527344 633.148438 47.035156 C 633.050781 46.542969 632.90625 46.070312 632.714844 45.605469 C 632.523438 45.144531 632.289062 44.707031 632.007812 44.289062 C 631.730469 43.875 631.417969 43.488281 631.0625 43.136719 C 630.710938 42.78125 630.324219 42.46875 629.910156 42.1875 C 629.492188 41.910156 629.054688 41.675781 628.59375 41.484375 C 628.128906 41.292969 627.652344 41.148438 627.164062 41.050781 C 626.671875 40.953125 626.179688 40.90625 625.679688 40.90625 Z M 184.019531 40.90625 " fill-opacity="1" fill-rule="nonzero"/></g><path fill="#000000" d="M 168.789062 86.59375 L 640.90625 86.59375 L 640.90625 101.824219 L 168.789062 101.824219 Z M 168.789062 86.59375 " fill-opacity="1" fill-rule="nonzero"/><path fill="#000000" d="M 191.632812 56.136719 L 206.863281 56.136719 L 206.863281 71.363281 L 191.632812 71.363281 Z M 191.632812 56.136719 " fill-opacity="1" fill-rule="nonzero"/><path fill="#000000" d="M 222.09375 56.136719 L 237.324219 56.136719 L 237.324219 71.363281 L 222.09375 71.363281 Z M 222.09375 56.136719 " fill-opacity="1" fill-rule="nonzero"/><path fill="#000000" d="M 252.554688 56.136719 L 267.78125 56.136719 L 267.78125 71.363281 L 252.554688 71.363281 Z M 252.554688 56.136719 " fill-opacity="1" fill-rule="nonzero"/><g clip-path="url(#61bfd7a685)"><path fill="#000000" d="M 298.242188 94.210938 L 283.011719 94.210938 L 283.011719 56.136719 C 283.042969 55.628906 283.050781 55.117188 283.027344 54.609375 C 283.007812 54.101562 282.957031 53.59375 282.882812 53.089844 C 282.808594 52.589844 282.707031 52.089844 282.578125 51.597656 C 282.449219 51.105469 282.292969 50.621094 282.113281 50.144531 C 281.933594 49.667969 281.726562 49.203125 281.5 48.746094 C 281.269531 48.292969 281.015625 47.851562 280.738281 47.425781 C 280.460938 46.996094 280.164062 46.585938 279.84375 46.191406 C 279.523438 45.792969 279.183594 45.417969 278.820312 45.058594 C 278.460938 44.699219 278.082031 44.359375 277.683594 44.039062 C 277.289062 43.71875 276.875 43.421875 276.449219 43.148438 C 276.019531 42.875 275.578125 42.621094 275.121094 42.394531 C 274.667969 42.164062 274.199219 41.960938 273.722656 41.785156 C 273.246094 41.605469 272.761719 41.453125 272.269531 41.324219 C 271.777344 41.199219 271.277344 41.097656 270.773438 41.023438 C 270.269531 40.949219 269.761719 40.902344 269.253906 40.882812 C 268.746094 40.863281 268.238281 40.871094 267.730469 40.90625 L 267.78125 25.675781 C 268.789062 25.648438 269.792969 25.667969 270.796875 25.742188 C 271.796875 25.8125 272.796875 25.9375 273.785156 26.113281 C 274.777344 26.285156 275.757812 26.511719 276.722656 26.785156 C 277.691406 27.058594 278.644531 27.382812 279.578125 27.753906 C 280.511719 28.125 281.425781 28.542969 282.320312 29.003906 C 283.210938 29.46875 284.078125 29.976562 284.917969 30.53125 C 285.757812 31.082031 286.570312 31.675781 287.347656 32.3125 C 288.128906 32.949219 288.875 33.621094 289.585938 34.332031 C 290.296875 35.042969 290.96875 35.789062 291.605469 36.570312 C 292.242188 37.347656 292.835938 38.160156 293.386719 39 C 293.941406 39.839844 294.449219 40.707031 294.914062 41.597656 C 295.375 42.492188 295.792969 43.40625 296.164062 44.339844 C 296.535156 45.273438 296.859375 46.226562 297.132812 47.195312 C 297.40625 48.160156 297.632812 49.140625 297.804688 50.132812 C 297.980469 51.121094 298.105469 52.117188 298.175781 53.121094 C 298.25 54.125 298.269531 55.128906 298.242188 56.136719 Z M 298.242188 94.210938 " fill-opacity="1" fill-rule="nonzero"/></g><path fill="#000000" d="M 313.472656 56.136719 L 618.0625 56.136719 L 618.0625 71.363281 L 313.472656 71.363281 Z M 313.472656 56.136719 " fill-opacity="1" fill-rule="nonzero"/><path fill="#000000" d="M 389.621094 398.800781 L 206.863281 398.800781 C 206.363281 398.800781 205.867188 398.753906 205.378906 398.65625 C 204.886719 398.558594 204.410156 398.414062 203.949219 398.222656 C 203.488281 398.03125 203.050781 397.796875 202.632812 397.519531 C 202.21875 397.242188 201.832031 396.925781 201.480469 396.570312 C 201.125 396.21875 200.808594 395.832031 200.53125 395.417969 C 200.253906 395 200.019531 394.5625 199.828125 394.101562 C 199.636719 393.640625 199.492188 393.164062 199.394531 392.671875 C 199.296875 392.183594 199.25 391.6875 199.25 391.1875 L 199.25 132.285156 C 199.25 131.785156 199.296875 131.289062 199.394531 130.796875 C 199.492188 130.308594 199.636719 129.832031 199.828125 129.371094 C 200.019531 128.90625 200.253906 128.46875 200.53125 128.054688 C 200.808594 127.636719 201.125 127.253906 201.480469 126.898438 C 201.832031 126.546875 202.21875 126.230469 202.632812 125.953125 C 203.050781 125.675781 203.488281 125.441406 203.949219 125.25 C 204.410156 125.058594 204.886719 124.914062 205.378906 124.816406 C 205.867188 124.71875 206.363281 124.667969 206.863281 124.667969 L 420.078125 124.667969 C 420.578125 124.667969 421.074219 124.71875 421.5625 124.816406 C 422.054688 124.914062 422.53125 125.058594 422.992188 125.25 C 423.453125 125.441406 423.894531 125.675781 424.308594 125.953125 C 424.726562 126.230469 425.109375 126.546875 425.464844 126.898438 C 425.816406 127.253906 426.132812 127.636719 426.410156 128.054688 C 426.6875 128.46875 426.921875 128.90625 427.113281 129.371094 C 427.304688 129.832031 427.449219 130.308594 427.546875 130.796875 C 427.644531 131.289062 427.695312 131.785156 427.695312 132.285156 L 427.695312 208.429688 L 412.464844 208.429688 L 412.464844 139.898438 L 214.480469 139.898438 L 214.480469 383.570312 L 389.621094 383.570312 Z M 389.621094 398.800781 " fill-opacity="1" fill-rule="nonzero"/><path fill="#000000" d="M 602.832031 474.949219 L 389.621094 474.949219 C 389.121094 474.949219 388.625 474.902344 388.132812 474.804688 C 387.644531 474.707031 387.167969 474.5625 386.707031 474.371094 C 386.242188 474.179688 385.804688 473.945312 385.390625 473.667969 C 384.972656 473.386719 384.589844 473.074219 384.234375 472.71875 C 383.882812 472.367188 383.566406 471.980469 383.289062 471.566406 C 383.011719 471.148438 382.777344 470.710938 382.585938 470.25 C 382.394531 469.785156 382.25 469.3125 382.152344 468.820312 C 382.054688 468.328125 382.003906 467.835938 382.003906 467.335938 L 382.003906 208.429688 C 382.003906 207.929688 382.054688 207.4375 382.152344 206.945312 C 382.25 206.457031 382.394531 205.980469 382.585938 205.515625 C 382.777344 205.054688 383.011719 204.617188 383.289062 204.199219 C 383.566406 203.785156 383.882812 203.402344 384.234375 203.046875 C 384.589844 202.695312 384.972656 202.378906 385.390625 202.101562 C 385.804688 201.820312 386.242188 201.585938 386.707031 201.394531 C 387.167969 201.203125 387.644531 201.058594 388.132812 200.964844 C 388.625 200.867188 389.121094 200.816406 389.621094 200.816406 L 602.832031 200.816406 C 603.332031 200.816406 603.828125 200.867188 604.320312 200.964844 C 604.808594 201.058594 605.285156 201.203125 605.746094 201.394531 C 606.210938 201.585938 606.648438 201.820312 607.0625 202.101562 C 607.480469 202.378906 607.863281 202.695312 608.21875 203.046875 C 608.570312 203.402344 608.886719 203.785156 609.164062 204.199219 C 609.441406 204.617188 609.675781 205.054688 609.867188 205.515625 C 610.058594 205.980469 610.203125 206.457031 610.300781 206.945312 C 610.398438 207.4375 610.449219 207.929688 610.449219 208.429688 L 610.449219 467.335938 C 610.449219 467.835938 610.398438 468.328125 610.300781 468.820312 C 610.203125 469.3125 610.058594 469.785156 609.867188 470.25 C 609.675781 470.710938 609.441406 471.148438 609.164062 471.566406 C 608.886719 471.980469 608.570312 472.367188 608.21875 472.71875 C 607.863281 473.074219 607.480469 473.386719 607.0625 473.667969 C 606.648438 473.945312 606.210938 474.179688 605.746094 474.371094 C 605.285156 474.5625 604.808594 474.707031 604.320312 474.804688 C 603.828125 474.902344 603.332031 474.949219 602.832031 474.949219 Z M 397.234375 459.71875 L 595.21875 459.71875 L 595.21875 216.046875 L 397.234375 216.046875 Z M 397.234375 459.71875 " fill-opacity="1" fill-rule="nonzero"/><path fill="#000000" d="M 526.6875 315.039062 L 511.457031 315.039062 L 511.457031 261.734375 C 511.457031 260.734375 511.359375 259.746094 511.164062 258.765625 C 510.96875 257.78125 510.679688 256.832031 510.296875 255.90625 C 509.914062 254.984375 509.445312 254.105469 508.890625 253.273438 C 508.335938 252.441406 507.703125 251.671875 506.996094 250.964844 C 506.289062 250.257812 505.519531 249.628906 504.6875 249.070312 C 503.855469 248.515625 502.980469 248.046875 502.054688 247.664062 C 501.128906 247.28125 500.179688 246.992188 499.199219 246.796875 C 498.21875 246.601562 497.226562 246.503906 496.226562 246.503906 C 495.226562 246.503906 494.234375 246.601562 493.253906 246.796875 C 492.273438 246.992188 491.324219 247.28125 490.398438 247.664062 C 489.472656 248.046875 488.597656 248.515625 487.765625 249.070312 C 486.933594 249.628906 486.164062 250.257812 485.457031 250.964844 C 484.75 251.671875 484.121094 252.441406 483.5625 253.273438 C 483.007812 254.105469 482.539062 254.984375 482.15625 255.90625 C 481.773438 256.832031 481.484375 257.78125 481.289062 258.765625 C 481.09375 259.746094 480.996094 260.734375 480.996094 261.734375 L 480.996094 315.039062 L 465.765625 315.039062 L 465.765625 261.734375 C 465.765625 260.738281 465.816406 259.742188 465.914062 258.75 C 466.011719 257.757812 466.15625 256.769531 466.351562 255.792969 C 466.546875 254.8125 466.789062 253.847656 467.078125 252.894531 C 467.367188 251.9375 467.703125 251 468.085938 250.078125 C 468.46875 249.15625 468.894531 248.257812 469.363281 247.375 C 469.835938 246.496094 470.347656 245.640625 470.902344 244.8125 C 471.453125 243.984375 472.046875 243.183594 472.679688 242.410156 C 473.3125 241.640625 473.984375 240.902344 474.6875 240.195312 C 475.394531 239.492188 476.132812 238.824219 476.902344 238.191406 C 477.675781 237.558594 478.476562 236.964844 479.304688 236.410156 C 480.132812 235.855469 480.988281 235.34375 481.867188 234.871094 C 482.746094 234.402344 483.648438 233.976562 484.570312 233.59375 C 485.492188 233.210938 486.429688 232.878906 487.386719 232.585938 C 488.339844 232.296875 489.304688 232.054688 490.285156 231.859375 C 491.261719 231.667969 492.25 231.519531 493.242188 231.421875 C 494.234375 231.324219 495.230469 231.277344 496.226562 231.277344 C 497.222656 231.277344 498.21875 231.324219 499.210938 231.421875 C 500.203125 231.519531 501.191406 231.667969 502.167969 231.859375 C 503.148438 232.054688 504.113281 232.296875 505.070312 232.585938 C 506.023438 232.878906 506.960938 233.210938 507.882812 233.59375 C 508.804688 233.976562 509.707031 234.402344 510.585938 234.871094 C 511.464844 235.34375 512.320312 235.855469 513.148438 236.410156 C 513.976562 236.964844 514.777344 237.558594 515.550781 238.191406 C 516.320312 238.824219 517.058594 239.492188 517.765625 240.195312 C 518.46875 240.902344 519.140625 241.640625 519.773438 242.410156 C 520.40625 243.183594 521 243.984375 521.550781 244.8125 C 522.105469 245.640625 522.617188 246.496094 523.089844 247.375 C 523.558594 248.257812 523.984375 249.15625 524.367188 250.078125 C 524.75 251 525.085938 251.9375 525.375 252.894531 C 525.664062 253.847656 525.90625 254.8125 526.101562 255.792969 C 526.296875 256.769531 526.441406 257.757812 526.539062 258.75 C 526.636719 259.742188 526.6875 260.738281 526.6875 261.734375 Z M 526.6875 315.039062 " fill-opacity="1" fill-rule="nonzero"/><path fill="#000000" d="M 473.382812 269.351562 L 519.070312 269.351562 L 519.070312 284.578125 L 473.382812 284.578125 Z M 473.382812 269.351562 " fill-opacity="1" fill-rule="nonzero"/><path fill="#000000" d="M 260.167969 170.359375 L 351.546875 170.359375 L 351.546875 185.585938 L 260.167969 185.585938 Z M 260.167969 170.359375 " fill-opacity="1" fill-rule="nonzero"/><path fill="#000000" d="M 298.242188 155.128906 L 313.472656 155.128906 L 313.472656 177.972656 L 298.242188 177.972656 Z M 298.242188 155.128906 " fill-opacity="1" fill-rule="nonzero"/><path fill="#000000" d="M 260.167969 254.121094 L 260.167969 238.890625 C 327.9375 238.890625 328.699219 180.460938 328.699219 177.972656 L 343.929688 177.972656 C 343.929688 178.734375 342.972656 254.121094 260.167969 254.121094 Z M 260.167969 254.121094 " fill-opacity="1" fill-rule="nonzero"/><path fill="#000000" d="M 351.546875 254.121094 C 305.957031 254.121094 285.351562 231.0625 276.082031 211.730469 L 289.789062 205.140625 C 300.527344 227.535156 321.308594 238.890625 351.546875 238.890625 Z M 351.546875 254.121094 " fill-opacity="1" fill-rule="nonzero"/><path fill="#000000" d="M 229.707031 276.964844 L 244.9375 276.964844 L 244.9375 292.195312 L 229.707031 292.195312 Z M 229.707031 276.964844 " fill-opacity="1" fill-rule="nonzero"/><path fill="#000000" d="M 260.167969 276.964844 L 366.773438 276.964844 L 366.773438 292.195312 L 260.167969 292.195312 Z M 260.167969 276.964844 " fill-opacity="1" fill-rule="nonzero"/><path fill="#000000" d="M 229.707031 307.425781 L 366.773438 307.425781 L 366.773438 322.652344 L 229.707031 322.652344 Z M 229.707031 307.425781 " fill-opacity="1" fill-rule="nonzero"/><path fill="#000000" d="M 229.707031 337.882812 L 366.773438 337.882812 L 366.773438 353.113281 L 229.707031 353.113281 Z M 229.707031 337.882812 " fill-opacity="1" fill-rule="nonzero"/><path fill="#000000" d="M 427.695312 330.269531 L 442.921875 330.269531 L 442.921875 345.496094 L 427.695312 345.496094 Z M 427.695312 330.269531 " fill-opacity="1" fill-rule="nonzero"/><path fill="#000000" d="M 458.152344 330.269531 L 564.761719 330.269531 L 564.761719 345.496094 L 458.152344 345.496094 Z M 458.152344 330.269531 " fill-opacity="1" fill-rule="nonzero"/><path fill="#000000" d="M 427.695312 360.726562 L 564.761719 360.726562 L 564.761719 375.957031 L 427.695312 375.957031 Z M 427.695312 360.726562 " fill-opacity="1" fill-rule="nonzero"/><path fill="#000000" d="M 427.695312 391.1875 L 564.761719 391.1875 L 564.761719 406.417969 L 427.695312 406.417969 Z M 427.695312 391.1875 " fill-opacity="1" fill-rule="nonzero"/><path fill="#000000" d="M 427.695312 421.644531 L 564.761719 421.644531 L 564.761719 436.875 L 427.695312 436.875 Z M 427.695312 421.644531 " fill-opacity="1" fill-rule="nonzero"/><path fill="#000000" d="M 549.53125 185.585938 L 534.300781 185.585938 L 534.300781 155.128906 L 450.539062 155.128906 C 449.785156 155.128906 449.046875 155.019531 448.328125 154.800781 C 447.605469 154.582031 446.933594 154.261719 446.308594 153.84375 C 445.683594 153.425781 445.128906 152.925781 444.652344 152.34375 C 444.175781 151.761719 443.792969 151.121094 443.503906 150.425781 C 443.214844 149.730469 443.035156 149.007812 442.960938 148.257812 C 442.886719 147.511719 442.925781 146.765625 443.070312 146.027344 C 443.21875 145.289062 443.46875 144.589844 443.824219 143.925781 C 444.179688 143.261719 444.621094 142.660156 445.152344 142.128906 L 468 119.285156 L 478.765625 130.050781 L 468.921875 139.898438 L 541.914062 139.898438 C 542.414062 139.898438 542.910156 139.945312 543.402344 140.042969 C 543.890625 140.140625 544.367188 140.285156 544.828125 140.476562 C 545.292969 140.667969 545.730469 140.902344 546.144531 141.179688 C 546.5625 141.460938 546.945312 141.773438 547.300781 142.128906 C 547.652344 142.480469 547.96875 142.867188 548.246094 143.28125 C 548.523438 143.699219 548.757812 144.136719 548.949219 144.597656 C 549.140625 145.0625 549.285156 145.535156 549.382812 146.027344 C 549.480469 146.519531 549.53125 147.011719 549.53125 147.511719 Z M 549.53125 185.585938 " fill-opacity="1" fill-rule="nonzero"/><path fill="#000000" d="M 445.15625 152.898438 L 455.925781 142.128906 L 478.769531 164.976562 L 468 175.746094 Z M 445.15625 152.898438 " fill-opacity="1" fill-rule="nonzero"/><path fill="#000000" d="M 341.699219 480.332031 L 330.933594 469.566406 L 340.777344 459.71875 L 267.78125 459.71875 C 267.28125 459.71875 266.789062 459.671875 266.296875 459.574219 C 265.804688 459.476562 265.332031 459.332031 264.867188 459.140625 C 264.40625 458.949219 263.96875 458.714844 263.550781 458.4375 C 263.136719 458.160156 262.75 457.84375 262.398438 457.488281 C 262.042969 457.136719 261.730469 456.75 261.449219 456.335938 C 261.171875 455.921875 260.9375 455.480469 260.746094 455.019531 C 260.554688 454.558594 260.410156 454.082031 260.3125 453.589844 C 260.214844 453.101562 260.167969 452.605469 260.167969 452.105469 L 260.167969 414.03125 L 275.398438 414.03125 L 275.398438 444.492188 L 359.160156 444.492188 C 359.914062 444.492188 360.648438 444.601562 361.371094 444.820312 C 362.089844 445.039062 362.765625 445.355469 363.390625 445.773438 C 364.015625 446.191406 364.566406 446.691406 365.046875 447.273438 C 365.523438 447.855469 365.90625 448.496094 366.195312 449.191406 C 366.480469 449.886719 366.664062 450.609375 366.738281 451.359375 C 366.808594 452.109375 366.773438 452.851562 366.628906 453.589844 C 366.480469 454.328125 366.230469 455.03125 365.875 455.695312 C 365.519531 456.359375 365.074219 456.957031 364.542969 457.488281 Z M 341.699219 480.332031 " fill-opacity="1" fill-rule="nonzero"/><path fill="#000000" d="M 330.933594 434.648438 L 341.703125 423.878906 L 364.546875 446.722656 L 353.78125 457.492188 Z M 330.933594 434.648438 " fill-opacity="1" fill-rule="nonzero"/></svg>