<svg xmlns="http://www.w3.org/2000/svg" xmlns:xlink="http://www.w3.org/1999/xlink" width="1080" zoomAndPan="magnify" viewBox="0 0 810 540.000001" height="720" preserveAspectRatio="xMidYMid meet" version="1.0"><defs><clipPath id="18c5906f60"><path d="M 98.300781 214.742188 L 213.382812 214.742188 L 213.382812 324.261719 L 98.300781 324.261719 Z M 98.300781 214.742188 " clip-rule="nonzero"/></clipPath><clipPath id="6e4f8d10e6"><path d="M 155.753906 214.742188 L 169.316406 256.574219 L 213.207031 256.574219 L 177.699219 282.429688 L 191.261719 324.261719 L 155.753906 298.40625 L 120.246094 324.261719 L 133.808594 282.429688 L 98.300781 256.574219 L 142.191406 256.574219 Z M 155.753906 214.742188 " clip-rule="nonzero"/></clipPath><clipPath id="572b192567"><path d="M 223.089844 214.742188 L 338 214.742188 L 338 324.261719 L 223.089844 324.261719 Z M 223.089844 214.742188 " clip-rule="nonzero"/></clipPath><clipPath id="93e4570893"><path d="M 280.542969 214.742188 L 294.105469 256.574219 L 337.996094 256.574219 L 302.488281 282.429688 L 316.050781 324.261719 L 280.542969 298.40625 L 245.035156 324.261719 L 258.597656 282.429688 L 223.089844 256.574219 L 266.980469 256.574219 Z M 280.542969 214.742188 " clip-rule="nonzero"/></clipPath><clipPath id="dfd26fd795"><path d="M 347.730469 214.742188 L 462.808594 214.742188 L 462.808594 324.261719 L 347.730469 324.261719 Z M 347.730469 214.742188 " clip-rule="nonzero"/></clipPath><clipPath id="a19868b32a"><path d="M 405.183594 214.742188 L 418.746094 256.574219 L 462.636719 256.574219 L 427.128906 282.429688 L 440.691406 324.261719 L 405.183594 298.40625 L 369.675781 324.261719 L 383.238281 282.429688 L 347.730469 256.574219 L 391.617188 256.574219 Z M 405.183594 214.742188 " clip-rule="nonzero"/></clipPath><clipPath id="6f846b693b"><path d="M 472.367188 214.742188 L 587.449219 214.742188 L 587.449219 324.261719 L 472.367188 324.261719 Z M 472.367188 214.742188 " clip-rule="nonzero"/></clipPath><clipPath id="fbd2de55d7"><path d="M 529.820312 214.742188 L 543.382812 256.574219 L 587.273438 256.574219 L 551.765625 282.429688 L 565.328125 324.261719 L 529.820312 298.40625 L 494.3125 324.261719 L 507.875 282.429688 L 472.367188 256.574219 L 516.257812 256.574219 Z M 529.820312 214.742188 " clip-rule="nonzero"/></clipPath><clipPath id="961820e190"><path d="M 597.003906 214.742188 L 712 214.742188 L 712 324.261719 L 597.003906 324.261719 Z M 597.003906 214.742188 " clip-rule="nonzero"/></clipPath><clipPath id="8ea5755348"><path d="M 654.457031 214.742188 L 668.019531 256.574219 L 711.910156 256.574219 L 676.402344 282.429688 L 689.964844 324.261719 L 654.457031 298.40625 L 618.949219 324.261719 L 632.511719 282.429688 L 597.003906 256.574219 L 640.894531 256.574219 Z M 654.457031 214.742188 " clip-rule="nonzero"/></clipPath><clipPath id="d7fb6a985a"><path d="M 587.273438 261.265625 L 702.355469 261.265625 L 702.355469 370.785156 L 587.273438 370.785156 Z M 587.273438 261.265625 " clip-rule="nonzero"/></clipPath><clipPath id="6b99ff711c"><path d="M 644.726562 261.265625 L 658.289062 303.097656 L 702.179688 303.097656 L 666.671875 328.953125 L 680.234375 370.785156 L 644.726562 344.933594 L 609.21875 370.785156 L 622.78125 328.953125 L 587.273438 303.097656 L 631.164062 303.097656 Z M 644.726562 261.265625 " clip-rule="nonzero"/></clipPath><clipPath id="376d3c231b"><path d="M 654.457031 329.117188 L 721.832031 329.117188 L 721.832031 412.203125 L 654.457031 412.203125 Z M 654.457031 329.117188 " clip-rule="nonzero"/></clipPath></defs><g clip-path="url(#18c5906f60)"><g clip-path="url(#6e4f8d10e6)"><path fill="#ffbd59" d="M 98.300781 214.742188 L 213.382812 214.742188 L 213.382812 324.261719 L 98.300781 324.261719 Z M 98.300781 214.742188 " fill-opacity="1" fill-rule="nonzero"/></g></g><g clip-path="url(#572b192567)"><g clip-path="url(#93e4570893)"><path fill="#ffbd59" d="M 223.089844 214.742188 L 338.171875 214.742188 L 338.171875 324.261719 L 223.089844 324.261719 Z M 223.089844 214.742188 " fill-opacity="1" fill-rule="nonzero"/></g></g><g clip-path="url(#dfd26fd795)"><g clip-path="url(#a19868b32a)"><path fill="#ffbd59" d="M 347.730469 214.742188 L 462.808594 214.742188 L 462.808594 324.261719 L 347.730469 324.261719 Z M 347.730469 214.742188 " fill-opacity="1" fill-rule="nonzero"/></g></g><g clip-path="url(#6f846b693b)"><g clip-path="url(#fbd2de55d7)"><path fill="#ffbd59" d="M 472.367188 214.742188 L 587.449219 214.742188 L 587.449219 324.261719 L 472.367188 324.261719 Z M 472.367188 214.742188 " fill-opacity="1" fill-rule="nonzero"/></g></g><g clip-path="url(#961820e190)"><g clip-path="url(#8ea5755348)"><path fill="#d9d9d9" d="M 597.003906 214.742188 L 712.085938 214.742188 L 712.085938 324.261719 L 597.003906 324.261719 Z M 597.003906 214.742188 " fill-opacity="1" fill-rule="nonzero"/></g></g><g clip-path="url(#d7fb6a985a)"><g clip-path="url(#6b99ff711c)"><path fill="#ffbd59" d="M 587.273438 261.265625 L 702.355469 261.265625 L 702.355469 370.785156 L 587.273438 370.785156 Z M 587.273438 261.265625 " fill-opacity="1" fill-rule="nonzero"/></g></g><g clip-path="url(#376d3c231b)"><path fill="#1d1d1b" d="M 721.839844 367.238281 L 654.457031 329.117188 L 663.6875 404.832031 L 682.089844 384.085938 L 682.183594 384.019531 L 700.636719 412.203125 L 713.652344 403.796875 L 695.117188 375.488281 L 695.199219 375.433594 L 721.839844 367.238281 " fill-opacity="1" fill-rule="nonzero"/></g></svg>