<svg xmlns="http://www.w3.org/2000/svg" xmlns:xlink="http://www.w3.org/1999/xlink" width="1080" zoomAndPan="magnify" viewBox="0 0 810 540.000001" height="720" preserveAspectRatio="xMidYMid meet" version="1.0"><defs><clipPath id="87866f69c3"><path d="M 198 420 L 318.566406 420 L 318.566406 484 L 198 484 Z M 198 420 " clip-rule="nonzero"/></clipPath><clipPath id="9e8981944d"><path d="M 46 296.476562 L 161 296.476562 L 161 409 L 46 409 Z M 46 296.476562 " clip-rule="nonzero"/></clipPath><clipPath id="5c8c4c536a"><path d="M 343.546875 422 L 461.828125 422 L 461.828125 484 L 343.546875 484 Z M 343.546875 422 " clip-rule="nonzero"/></clipPath><clipPath id="89b6d17935"><path d="M 488 421 L 609 421 L 609 484.804688 L 488 484.804688 Z M 488 421 " clip-rule="nonzero"/></clipPath><clipPath id="bd46ce3ff4"><path d="M 636.0625 434 L 757 434 L 757 484.902344 L 636.0625 484.902344 Z M 636.0625 434 " clip-rule="nonzero"/></clipPath><clipPath id="fac8cd95d4"><path d="M 198.839844 107.132812 L 343.324219 107.132812 L 343.324219 251.617188 L 198.839844 251.617188 Z M 198.839844 107.132812 " clip-rule="nonzero"/></clipPath><clipPath id="0153eaa899"><path d="M 461.554688 107.132812 L 606.035156 107.132812 L 606.035156 251.617188 L 461.554688 251.617188 Z M 461.554688 107.132812 " clip-rule="nonzero"/></clipPath><clipPath id="3daffbc9aa"><path d="M 329.59375 34.925781 L 474.074219 34.925781 L 474.074219 179.410156 L 329.59375 179.410156 Z M 329.59375 34.925781 " clip-rule="nonzero"/></clipPath><clipPath id="3f880259f1"><path d="M 189 261 L 245 261 L 245 341 L 189 341 Z M 189 261 " clip-rule="nonzero"/></clipPath><clipPath id="d59ff0023f"><path d="M 172.398438 329.429688 L 218.28125 251.332031 L 255.074219 272.945312 L 209.1875 351.046875 Z M 172.398438 329.429688 " clip-rule="nonzero"/></clipPath><clipPath id="188781451a"><path d="M 172.398438 329.429688 L 218.28125 251.332031 L 255.074219 272.945312 L 209.1875 351.046875 Z M 172.398438 329.429688 " clip-rule="nonzero"/></clipPath><clipPath id="8eed1dbb4b"><path d="M 172.398438 329.429688 L 218.28125 251.332031 L 255.074219 272.945312 L 209.1875 351.046875 Z M 172.398438 329.429688 " clip-rule="nonzero"/></clipPath><clipPath id="e591f6deff"><path d="M 575 256 L 630 256 L 630 337 L 575 337 Z M 575 256 " clip-rule="nonzero"/></clipPath><clipPath id="33b835f034"><path d="M 609.84375 346.289062 L 564.890625 267.648438 L 601.933594 246.472656 L 646.890625 325.109375 Z M 609.84375 346.289062 " clip-rule="nonzero"/></clipPath><clipPath id="ea46888a00"><path d="M 609.84375 346.289062 L 564.890625 267.648438 L 601.933594 246.472656 L 646.890625 325.109375 Z M 609.84375 346.289062 " clip-rule="nonzero"/></clipPath><clipPath id="ba05785d81"><path d="M 609.84375 346.289062 L 564.890625 267.648438 L 601.933594 246.472656 L 646.890625 325.109375 Z M 609.84375 346.289062 " clip-rule="nonzero"/></clipPath><clipPath id="a2016eda33"><path d="M 380.445312 211 L 423 211 L 423 301.300781 L 380.445312 301.300781 Z M 380.445312 211 " clip-rule="nonzero"/></clipPath></defs><g clip-path="url(#87866f69c3)"><path fill="#000000" d="M 205.359375 483.847656 L 311.117188 483.847656 C 315.464844 483.847656 318.769531 479.9375 318.042969 475.652344 L 315.664062 461.601562 C 311.664062 437.949219 291.167969 420.636719 267.167969 420.636719 L 249.308594 420.636719 C 225.308594 420.636719 204.8125 437.949219 200.808594 461.601562 L 198.433594 475.652344 C 197.707031 479.9375 201.011719 483.847656 205.359375 483.847656 Z M 274.886719 457.636719 L 287.65625 457.636719 C 289.597656 457.636719 291.171875 459.210938 291.171875 461.148438 C 291.171875 463.085938 289.597656 464.660156 287.65625 464.660156 L 274.886719 464.660156 C 272.945312 464.660156 271.371094 463.085938 271.371094 461.148438 C 271.371094 459.210938 272.945312 457.636719 274.886719 457.636719 Z M 274.886719 457.636719 " fill-opacity="1" fill-rule="nonzero"/></g><path fill="#000000" d="M 242.003906 409.640625 C 247.191406 412.34375 252.738281 413.621094 258.207031 413.621094 C 270.886719 413.621094 283.132812 406.738281 289.398438 394.722656 C 298.363281 377.523438 291.679688 356.316406 274.46875 347.355469 C 269.285156 344.65625 263.734375 343.375 258.265625 343.375 C 245.585938 343.375 233.339844 350.257812 227.078125 362.277344 C 218.113281 379.476562 224.796875 400.683594 242.003906 409.640625 Z M 254.707031 350.644531 C 255.878906 350.496094 257.066406 350.398438 258.269531 350.398438 C 259.152344 350.398438 260.019531 350.476562 260.886719 350.554688 C 263.984375 355.046875 272.226562 365.320312 283.722656 366.746094 C 287.234375 374.371094 287.339844 383.472656 283.164062 391.476562 C 278.304688 400.804688 268.742188 406.597656 258.207031 406.597656 C 253.671875 406.597656 249.3125 405.527344 245.25 403.414062 C 238.59375 399.945312 233.683594 394.097656 231.429688 386.9375 C 229.289062 380.152344 229.8125 372.972656 232.824219 366.574219 C 243.777344 364.753906 251.648438 355.058594 254.707031 350.644531 Z M 254.707031 350.644531 " fill-opacity="1" fill-rule="nonzero"/><path fill="#000000" d="M 244.65625 391.996094 C 250.21875 391.996094 254.863281 388.28125 256.382812 383.214844 L 260.089844 383.214844 C 261.609375 388.28125 266.253906 391.996094 271.816406 391.996094 C 278.609375 391.996094 284.113281 386.492188 284.113281 379.703125 C 284.113281 372.917969 278.609375 367.414062 271.816406 367.414062 C 266.257812 367.414062 261.613281 371.128906 260.09375 376.191406 L 256.382812 376.191406 C 254.863281 371.128906 250.21875 367.414062 244.65625 367.414062 C 237.867188 367.414062 232.359375 372.917969 232.359375 379.703125 C 232.359375 386.492188 237.867188 391.996094 244.65625 391.996094 Z M 271.816406 374.4375 C 274.722656 374.4375 277.089844 376.800781 277.089844 379.703125 C 277.089844 382.609375 274.722656 384.972656 271.816406 384.972656 C 268.910156 384.972656 266.546875 382.609375 266.546875 379.703125 C 266.546875 376.800781 268.910156 374.4375 271.816406 374.4375 Z M 244.65625 374.4375 C 247.5625 374.4375 249.929688 376.800781 249.929688 379.703125 C 249.929688 382.609375 247.5625 384.972656 244.65625 384.972656 C 241.75 384.972656 239.386719 382.609375 239.386719 379.703125 C 239.386719 376.800781 241.75 374.4375 244.65625 374.4375 Z M 244.65625 374.4375 " fill-opacity="1" fill-rule="nonzero"/><path fill="#000000" d="M 168.761719 474.246094 L 166.238281 459.335938 C 162.878906 439.484375 148.550781 423.882812 130.109375 418.207031 C 130.035156 418.300781 130.003906 418.410156 129.917969 418.496094 L 121.132812 427.277344 C 117.765625 430.640625 113.511719 432.777344 108.902344 433.523438 L 108.902344 461.210938 C 108.902344 463.265625 107.230469 464.9375 105.171875 464.9375 C 103.113281 464.9375 101.441406 463.265625 101.441406 461.210938 L 101.441406 433.488281 C 96.921875 432.710938 92.75 430.585938 89.4375 427.277344 L 80.65625 418.496094 C 80.570312 418.410156 80.539062 418.296875 80.460938 418.207031 C 62.019531 423.882812 47.691406 439.480469 44.332031 459.335938 L 41.808594 474.246094 C 41.039062 478.796875 44.546875 482.941406 49.164062 482.941406 L 161.410156 482.941406 C 166.023438 482.941406 169.53125 478.796875 168.761719 474.246094 Z M 168.761719 474.246094 " fill-opacity="1" fill-rule="nonzero"/><g clip-path="url(#9e8981944d)"><path fill="#000000" d="M 47.519531 361.898438 C 47.519531 364.789062 48.527344 367.421875 50.160156 369.554688 C 49.828125 370.730469 49.59375 371.941406 49.59375 373.222656 C 49.59375 378.808594 52.972656 383.597656 57.796875 385.675781 C 57.511719 386.625 57.3125 387.613281 57.3125 388.65625 C 57.3125 394.417969 61.988281 399.089844 67.757812 399.089844 C 71.28125 399.089844 74.382812 397.335938 76.273438 394.660156 C 83.113281 403.035156 93.511719 408.386719 105.171875 408.386719 C 116.171875 408.386719 126.027344 403.601562 132.851562 396.03125 C 134.742188 397.921875 137.355469 399.089844 140.238281 399.089844 C 146.007812 399.089844 150.683594 394.417969 150.683594 388.65625 C 150.683594 387.613281 150.480469 386.625 150.199219 385.675781 C 155.023438 383.597656 158.402344 378.808594 158.402344 373.222656 C 158.402344 371.234375 157.949219 369.363281 157.179688 367.660156 C 158.078125 365.925781 158.628906 363.984375 158.628906 361.898438 C 158.628906 359.242188 157.804688 356.78125 156.40625 354.742188 C 159.183594 351.933594 160.90625 348.074219 160.90625 343.8125 C 160.90625 337.109375 156.640625 331.445312 150.691406 329.253906 C 151.230469 327.675781 151.589844 326.007812 151.589844 324.242188 C 151.589844 315.648438 144.617188 308.679688 136.015625 308.679688 C 135.878906 308.679688 135.753906 308.71875 135.621094 308.71875 C 133.054688 303.644531 127.847656 300.128906 121.765625 300.128906 C 118.921875 300.128906 116.289062 300.945312 113.992188 302.28125 C 111.136719 298.804688 106.859375 296.542969 102.007812 296.542969 C 97.515625 296.542969 93.5 298.472656 90.660156 301.511719 C 88.714844 300.636719 86.574219 300.128906 84.304688 300.128906 C 78.222656 300.128906 73.015625 303.644531 70.449219 308.722656 C 62.042969 308.945312 55.289062 315.789062 55.289062 324.242188 C 55.289062 326.050781 55.65625 327.757812 56.222656 329.375 C 50.46875 331.660156 46.390625 337.25 46.390625 343.8125 C 46.390625 347.753906 47.902344 351.308594 50.316406 354.050781 C 48.59375 356.214844 47.519531 358.917969 47.519531 361.898438 Z M 105.171875 400.933594 C 90.898438 400.933594 78.949219 390.859375 76.03125 377.457031 C 75.585938 375.414062 75.339844 373.296875 75.339844 371.121094 C 75.339844 369.972656 75.417969 368.84375 75.546875 367.730469 C 75.660156 366.714844 75.828125 365.71875 76.042969 364.734375 C 79.632812 362.5 82.042969 358.546875 82.042969 354.007812 C 82.042969 353.5 81.953125 353.015625 81.894531 352.523438 C 82.03125 352.351562 82.164062 352.175781 82.304688 352.007812 C 83.113281 352.167969 83.941406 352.257812 84.796875 352.257812 C 90.8125 352.257812 95.828125 348.058594 97.125 342.4375 C 97.183594 342.421875 97.246094 342.410156 97.304688 342.390625 C 99.546875 343.289062 101.980469 343.8125 104.542969 343.8125 C 107.046875 343.8125 109.417969 343.300781 111.617188 342.441406 C 111.578125 342.902344 111.480469 343.34375 111.480469 343.8125 C 111.480469 352.410156 118.453125 359.375 127.054688 359.375 C 128.84375 359.375 130.539062 359.011719 132.140625 358.457031 C 132.585938 359.398438 132.980469 360.359375 133.328125 361.351562 C 133.320312 361.539062 133.273438 361.710938 133.273438 361.898438 C 133.273438 363.109375 133.496094 364.253906 133.8125 365.363281 C 134.0625 366.230469 134.394531 367.050781 134.8125 367.832031 C 134.933594 368.914062 135.003906 370.007812 135.003906 371.121094 C 135.003906 374.425781 134.441406 377.59375 133.445312 380.566406 C 133.402344 380.699219 133.347656 380.824219 133.300781 380.957031 C 132.449219 383.386719 131.316406 385.691406 129.894531 387.789062 C 124.527344 395.714844 115.449219 400.933594 105.171875 400.933594 Z M 105.171875 400.933594 " fill-opacity="1" fill-rule="nonzero"/></g><path fill="#000000" d="M 88.5625 415.863281 L 89.050781 416.347656 L 94.710938 422.007812 C 100.359375 427.652344 110.210938 427.652344 115.859375 422.007812 L 121.519531 416.347656 L 122.007812 415.863281 Z M 88.5625 415.863281 " fill-opacity="1" fill-rule="nonzero"/><g clip-path="url(#5c8c4c536a)"><path fill="#000000" d="M 463.078125 475.648438 L 460.699219 461.597656 C 457.390625 442.050781 442.800781 426.863281 424.289062 422.171875 C 422.152344 425.34375 413.5625 427.714844 403.273438 427.714844 C 392.980469 427.714844 384.390625 425.34375 382.253906 422.171875 C 363.742188 426.863281 349.152344 442.050781 345.84375 461.597656 L 343.464844 475.648438 C 342.742188 479.9375 346.046875 483.84375 350.394531 483.84375 L 456.148438 483.84375 C 460.5 483.84375 463.804688 479.9375 463.078125 475.648438 Z M 406.785156 454.871094 C 406.785156 456.8125 405.210938 458.382812 403.273438 458.382812 C 401.332031 458.382812 399.757812 456.8125 399.757812 454.871094 L 399.757812 442.105469 C 399.757812 440.167969 401.332031 438.59375 403.273438 438.59375 C 405.210938 438.59375 406.785156 440.167969 406.785156 442.105469 Z M 417.308594 449.128906 C 415.367188 449.128906 413.792969 447.558594 413.792969 445.617188 C 413.792969 443.679688 415.367188 442.105469 417.308594 442.105469 C 419.25 442.105469 420.820312 443.679688 420.820312 445.617188 C 420.820312 447.558594 419.25 449.128906 417.308594 449.128906 Z M 417.308594 449.128906 " fill-opacity="1" fill-rule="nonzero"/></g><path fill="#000000" d="M 387.039062 409.640625 C 391.972656 412.210938 397.234375 413.457031 402.445312 413.574219 C 402.710938 413.578125 402.976562 413.621094 403.242188 413.621094 C 403.488281 413.621094 403.726562 413.578125 403.96875 413.570312 C 416.386719 413.3125 428.289062 406.507812 434.433594 394.722656 C 441.683594 380.808594 438.6875 364.273438 428.167969 353.722656 C 432.226562 350.503906 434.875 345.59375 434.875 340.019531 C 434.875 330.320312 427.011719 322.460938 417.308594 322.460938 C 407.605469 322.460938 399.742188 330.320312 399.742188 340.019531 C 399.742188 341.242188 399.871094 342.4375 400.109375 343.589844 C 388.601562 344.644531 377.847656 351.273438 372.113281 362.273438 C 363.148438 379.472656 369.828125 400.679688 387.039062 409.640625 Z M 401.191406 359.414062 C 404.488281 367.910156 412.472656 379.464844 431.285156 380.785156 C 430.992188 384.417969 429.988281 388.050781 428.199219 391.476562 C 423.339844 400.804688 413.777344 406.597656 403.242188 406.597656 C 398.703125 406.597656 394.34375 405.527344 390.285156 403.414062 C 383.628906 399.945312 378.71875 394.09375 376.460938 386.9375 C 376.015625 385.515625 375.714844 384.074219 375.496094 382.625 C 391.578125 380.96875 398.351562 368.972656 401.191406 359.414062 Z M 401.191406 359.414062 " fill-opacity="1" fill-rule="nonzero"/><g clip-path="url(#89b6d17935)"><path fill="#000000" d="M 605.683594 462.011719 C 602.175781 441.292969 586.011719 425.441406 565.921875 421.828125 C 565.789062 422.035156 565.695312 422.261719 565.515625 422.441406 L 550.738281 437.210938 C 550.050781 437.898438 549.152344 438.238281 548.253906 438.238281 C 547.355469 438.238281 546.453125 437.898438 545.769531 437.210938 L 530.992188 422.441406 C 530.808594 422.261719 530.714844 422.035156 530.582031 421.828125 C 510.496094 425.441406 494.332031 441.292969 490.824219 462.011719 L 488.449219 476.0625 C 487.722656 480.347656 491.027344 484.257812 495.375 484.257812 L 601.132812 484.257812 C 605.480469 484.257812 608.785156 480.347656 608.058594 476.0625 Z M 531.609375 466.738281 L 517.347656 466.738281 C 515.410156 466.738281 513.835938 465.164062 513.835938 463.226562 C 513.835938 461.285156 515.410156 459.714844 517.347656 459.714844 L 531.609375 459.714844 C 533.550781 459.714844 535.125 461.285156 535.125 463.226562 C 535.125 465.164062 533.550781 466.738281 531.609375 466.738281 Z M 531.609375 454.011719 L 517.347656 454.011719 C 515.410156 454.011719 513.835938 452.4375 513.835938 450.5 C 513.835938 448.558594 515.410156 446.988281 517.347656 446.988281 L 531.609375 446.988281 C 533.550781 446.988281 535.125 448.558594 535.125 450.5 C 535.125 452.4375 533.550781 454.011719 531.609375 454.011719 Z M 531.609375 454.011719 " fill-opacity="1" fill-rule="nonzero"/></g><path fill="#000000" d="M 548.253906 429.761719 L 556.972656 421.046875 L 539.53125 421.046875 Z M 548.253906 429.761719 " fill-opacity="1" fill-rule="nonzero"/><path fill="#000000" d="M 517.09375 362.683594 C 508.128906 379.886719 514.8125 401.09375 532.019531 410.050781 C 537.207031 412.753906 542.753906 414.03125 548.222656 414.03125 C 560.902344 414.03125 573.148438 407.148438 579.414062 395.132812 C 588.378906 377.933594 581.695312 356.726562 564.484375 347.765625 C 559.300781 345.066406 553.75 343.785156 548.28125 343.785156 C 535.601562 343.785156 523.355469 350.667969 517.09375 362.683594 Z M 548.222656 407.007812 C 543.6875 407.007812 539.328125 405.9375 535.265625 403.824219 C 528.609375 400.355469 523.699219 394.507812 521.445312 387.347656 C 519.1875 380.191406 519.855469 372.585938 523.324219 365.929688 C 523.710938 365.1875 524.175781 364.511719 524.621094 363.816406 L 543.9375 363.816406 C 545.167969 363.816406 546.378906 363.472656 547.421875 362.820312 L 550.722656 360.773438 C 552.910156 359.414062 555.691406 359.453125 557.84375 360.867188 L 560.664062 362.726562 C 561.742188 363.4375 563.007812 363.816406 564.300781 363.816406 L 571.9375 363.816406 C 573.242188 365.867188 574.3125 368.085938 575.0625 370.46875 C 577.320312 377.625 576.648438 385.234375 573.183594 391.886719 C 568.320312 401.214844 558.757812 407.007812 548.222656 407.007812 Z M 548.222656 407.007812 " fill-opacity="1" fill-rule="nonzero"/><path fill="#000000" d="M 567.273438 388.433594 C 561.558594 390.003906 560.058594 384.546875 560.058594 384.546875 L 560.039062 384.550781 C 558.613281 382.367188 556.15625 380.914062 553.351562 380.914062 C 551.40625 380.914062 549.648438 381.636719 548.261719 382.789062 C 546.875 381.636719 545.117188 380.914062 543.171875 380.914062 C 540.367188 380.914062 537.910156 382.367188 536.484375 384.550781 L 536.464844 384.546875 C 536.464844 384.546875 535.125 389.839844 529.195312 388.355469 C 528.367188 388.144531 527.585938 388.898438 527.820312 389.71875 C 528.488281 392.082031 531.015625 395.804688 540.300781 395.804688 C 546.011719 395.804688 548.261719 392.953125 548.261719 391.371094 C 548.261719 392.953125 551.113281 395.804688 556.226562 395.804688 C 565.417969 395.804688 567.984375 392.152344 568.683594 389.789062 C 568.933594 388.953125 568.117188 388.203125 567.273438 388.433594 Z M 567.273438 388.433594 " fill-opacity="1" fill-rule="nonzero"/><g clip-path="url(#bd46ce3ff4)"><path fill="#000000" d="M 754.660156 464.550781 L 753.867188 463.449219 C 753.238281 462.585938 737.972656 442.269531 707.578125 455.351562 C 706.929688 455.710938 685.160156 467.160156 668.996094 458.265625 C 661.300781 454.03125 656.390625 446.011719 654.257812 434.488281 C 646.644531 441.628906 641.238281 451.175781 639.386719 462.109375 L 637.011719 476.160156 C 636.285156 480.445312 639.589844 484.355469 643.9375 484.355469 L 749.695312 484.355469 C 754.042969 484.355469 757.347656 480.445312 756.621094 476.160156 Z M 754.660156 464.550781 " fill-opacity="1" fill-rule="nonzero"/></g><path fill="#000000" d="M 732.503906 369.886719 C 726.0625 341.671875 701.859375 339.769531 695.460938 339.769531 C 694.621094 339.769531 694.089844 339.800781 693.945312 339.8125 L 693.6875 339.820312 C 693.339844 339.820312 659.121094 340.886719 659.121094 379.007812 C 659.121094 414.816406 660.234375 426.132812 660.246094 426.242188 C 660.328125 427.363281 660.464844 428.402344 660.589844 429.457031 C 661.957031 440.910156 665.886719 448.527344 672.367188 452.105469 C 685.175781 459.167969 704.339844 449.132812 704.535156 449.027344 C 723.34375 440.921875 737.203125 444.109375 745.570312 448.195312 C 747.710938 449.242188 749.519531 450.394531 751.167969 451.550781 C 751.820312 452.007812 752.527344 452.46875 753.101562 452.921875 C 752.554688 434.949219 749.941406 428.625 746.222656 419.632812 C 744.117188 414.542969 741.730469 408.75 739.203125 400.035156 C 737.550781 406.015625 734.695312 412.3125 729.875 418.023438 C 727.894531 420.371094 725.605469 422.425781 723.164062 424.335938 C 716.828125 429.300781 708.960938 432.796875 699.601562 434.804688 C 699.195312 434.96875 698.769531 435.078125 698.320312 435.078125 C 698.308594 435.078125 698.296875 435.074219 698.285156 435.074219 C 692.335938 436.246094 685.871094 436.90625 678.769531 436.90625 C 677.886719 436.90625 676.996094 436.898438 676.097656 436.878906 C 674.15625 436.839844 672.617188 435.238281 672.652344 433.296875 C 672.691406 431.359375 674.316406 429.847656 676.238281 429.855469 C 679.90625 429.9375 683.34375 429.796875 686.671875 429.558594 C 683.730469 427.355469 681.253906 424.761719 679.179688 421.921875 C 674.886719 416.042969 672.300781 409.125 670.753906 402.507812 C 670.113281 399.773438 669.652344 397.09375 669.324219 394.558594 C 668.128906 385.335938 668.671875 378.054688 668.734375 377.304688 C 668.738281 377.246094 668.769531 377.203125 668.777344 377.148438 C 669.03125 373.3125 670.058594 369.539062 671.886719 366.027344 C 676.75 356.703125 686.3125 350.90625 696.847656 350.90625 C 701.382812 350.90625 705.742188 351.980469 709.800781 354.09375 C 716.460938 357.558594 721.371094 363.410156 723.625 370.566406 C 725.882812 377.722656 725.214844 385.332031 721.746094 391.984375 C 716.882812 401.3125 707.320312 407.105469 696.789062 407.105469 C 692.25 407.105469 687.890625 406.035156 683.832031 403.921875 C 681.414062 402.664062 679.238281 401.082031 677.324219 399.25 C 677.71875 401.128906 678.199219 403.035156 678.789062 404.9375 C 679.335938 406.71875 679.980469 408.484375 680.730469 410.214844 C 682.464844 414.222656 684.78125 418 687.851562 421.148438 C 690.714844 424.082031 694.242188 426.453125 698.582031 427.933594 C 704.574219 426.609375 709.78125 424.558594 714.300781 421.902344 C 718.230469 419.59375 721.664062 416.84375 724.464844 413.542969 C 737.574219 398.070312 733.699219 376.46875 733.660156 376.25 C 733.660156 376.246094 733.664062 376.238281 733.660156 376.234375 C 733.277344 374.203125 732.890625 372.113281 732.503906 369.886719 Z M 732.503906 369.886719 " fill-opacity="1" fill-rule="nonzero"/><path fill="#000000" d="M 715.261719 369.0625 C 716.488281 369.0625 717.222656 367.703125 716.566406 366.667969 C 712.605469 360.421875 705.242188 356.226562 696.816406 356.226562 C 688.390625 356.226562 681.027344 360.421875 677.066406 366.667969 C 676.410156 367.703125 677.144531 369.0625 678.371094 369.0625 Z M 715.261719 369.0625 " fill-opacity="1" fill-rule="nonzero"/><g clip-path="url(#fac8cd95d4)"><path fill="#000000" d="M 271.082031 107.132812 C 231.203125 107.132812 198.839844 139.496094 198.839844 179.375 C 198.839844 219.253906 231.203125 251.617188 271.082031 251.617188 C 310.957031 251.617188 343.324219 219.253906 343.324219 179.375 C 343.324219 139.496094 310.957031 107.132812 271.082031 107.132812 Z M 271.082031 136.03125 C 280.570312 136.03125 288.273438 143.734375 288.273438 153.222656 C 288.273438 162.710938 280.570312 170.464844 271.082031 170.464844 C 261.59375 170.464844 253.886719 162.710938 253.886719 153.222656 C 253.886719 143.734375 261.59375 136.03125 271.082031 136.03125 Z M 292.65625 222.71875 L 249.503906 222.71875 C 242.8125 222.71875 237.367188 217.277344 237.367188 210.582031 C 237.367188 191.992188 252.492188 176.871094 271.082031 176.871094 C 289.671875 176.871094 304.792969 191.992188 304.792969 210.582031 C 304.792969 217.277344 299.351562 222.71875 292.65625 222.71875 Z M 292.65625 222.71875 " fill-opacity="1" fill-rule="nonzero"/></g><g clip-path="url(#0153eaa899)"><path fill="#000000" d="M 533.796875 107.132812 C 493.917969 107.132812 461.554688 139.496094 461.554688 179.375 C 461.554688 219.253906 493.917969 251.617188 533.796875 251.617188 C 573.671875 251.617188 606.035156 219.253906 606.035156 179.375 C 606.035156 139.496094 573.671875 107.132812 533.796875 107.132812 Z M 533.796875 136.03125 C 543.28125 136.03125 550.988281 143.734375 550.988281 153.222656 C 550.988281 162.710938 543.28125 170.464844 533.796875 170.464844 C 524.308594 170.464844 516.601562 162.710938 516.601562 153.222656 C 516.601562 143.734375 524.308594 136.03125 533.796875 136.03125 Z M 555.371094 222.71875 L 512.21875 222.71875 C 505.523438 222.71875 500.082031 217.277344 500.082031 210.582031 C 500.082031 191.992188 515.207031 176.871094 533.796875 176.871094 C 552.386719 176.871094 567.507812 191.992188 567.507812 210.582031 C 567.507812 217.277344 562.066406 222.71875 555.371094 222.71875 Z M 555.371094 222.71875 " fill-opacity="1" fill-rule="nonzero"/></g><g clip-path="url(#3daffbc9aa)"><path fill="#000000" d="M 401.832031 34.925781 C 361.957031 34.925781 329.59375 67.289062 329.59375 107.167969 C 329.59375 147.046875 361.957031 179.410156 401.832031 179.410156 C 441.710938 179.410156 474.074219 147.046875 474.074219 107.167969 C 474.074219 67.289062 441.710938 34.925781 401.832031 34.925781 Z M 401.832031 63.824219 C 411.320312 63.824219 419.027344 71.527344 419.027344 81.015625 C 419.027344 90.503906 411.320312 98.257812 401.832031 98.257812 C 392.347656 98.257812 384.640625 90.503906 384.640625 81.015625 C 384.640625 71.527344 392.347656 63.824219 401.832031 63.824219 Z M 423.410156 150.511719 L 380.257812 150.511719 C 373.5625 150.511719 368.121094 145.070312 368.121094 138.375 C 368.121094 119.785156 383.242188 104.664062 401.832031 104.664062 C 420.421875 104.664062 435.546875 119.785156 435.546875 138.375 C 435.546875 145.070312 430.105469 150.511719 423.410156 150.511719 Z M 423.410156 150.511719 " fill-opacity="1" fill-rule="nonzero"/></g><g clip-path="url(#3f880259f1)"><g clip-path="url(#d59ff0023f)"><g clip-path="url(#188781451a)"><g clip-path="url(#8eed1dbb4b)"><path fill="#000000" d="M 244.3125 288.820312 L 238.003906 264.367188 C 237.566406 262.671875 235.816406 261.640625 234.121094 262.082031 L 209.652344 268.457031 C 207.960938 268.902344 206.925781 270.660156 207.363281 272.355469 C 207.800781 274.050781 209.554688 275.082031 211.25 274.640625 L 228.246094 270.191406 L 189.667969 335.855469 C 188.777344 337.375 189.285156 339.34375 190.796875 340.230469 C 192.308594 341.121094 194.277344 340.605469 195.167969 339.089844 L 233.726562 273.457031 L 238.117188 290.472656 C 238.34375 291.347656 238.890625 291.992188 239.609375 292.417969 C 240.332031 292.839844 241.183594 292.96875 242.035156 292.773438 C 243.71875 292.277344 244.75 290.515625 244.3125 288.820312 Z M 244.3125 288.820312 " fill-opacity="1" fill-rule="nonzero"/></g></g></g></g><g clip-path="url(#e591f6deff)"><g clip-path="url(#33b835f034)"><g clip-path="url(#ea46888a00)"><g clip-path="url(#ba05785d81)"><path fill="#000000" d="M 610.359375 263.699219 L 586.003906 257.015625 C 584.316406 256.550781 582.550781 257.5625 582.09375 259.253906 L 575.460938 283.648438 C 575.003906 285.339844 576.015625 287.113281 577.703125 287.574219 C 579.394531 288.039062 581.160156 287.03125 581.617188 285.339844 L 586.207031 268.378906 L 624.003906 334.496094 C 624.878906 336.023438 626.839844 336.5625 628.363281 335.691406 C 629.886719 334.820312 630.417969 332.859375 629.542969 331.328125 L 591.765625 265.246094 L 608.710938 269.898438 C 609.582031 270.136719 610.414062 269.984375 611.140625 269.566406 C 611.867188 269.152344 612.402344 268.476562 612.65625 267.640625 C 613.0625 265.933594 612.046875 264.164062 610.359375 263.699219 Z M 610.359375 263.699219 " fill-opacity="1" fill-rule="nonzero"/></g></g></g></g><g clip-path="url(#a2016eda33)"><path fill="#000000" d="M 421.878906 229.855469 L 404.054688 211.96875 C 402.816406 210.726562 400.78125 210.726562 399.546875 211.96875 L 381.679688 229.855469 C 380.445312 231.097656 380.445312 233.136719 381.679688 234.378906 C 382.917969 235.621094 384.949219 235.621094 386.1875 234.378906 L 398.589844 221.933594 L 398.589844 298.09375 C 398.589844 299.851562 400.023438 301.292969 401.78125 301.292969 C 403.535156 301.292969 404.96875 299.851562 404.96875 298.09375 L 404.96875 221.972656 L 417.371094 234.417969 C 418.011719 235.058594 418.808594 235.339844 419.644531 235.339844 C 420.484375 235.339844 421.28125 235.019531 421.917969 234.417969 C 423.113281 233.136719 423.113281 231.097656 421.878906 229.855469 Z M 421.878906 229.855469 " fill-opacity="1" fill-rule="nonzero"/></g></svg>