<svg xmlns="http://www.w3.org/2000/svg" xmlns:xlink="http://www.w3.org/1999/xlink" width="1080" zoomAndPan="magnify" viewBox="0 0 810 540.000001" height="720" preserveAspectRatio="xMidYMid meet" version="1.0"><defs><clipPath id="868ea05ea2"><path d="M 158.238281 50.109375 L 651.578125 50.109375 L 651.578125 487 L 158.238281 487 Z M 158.238281 50.109375 " clip-rule="nonzero"/></clipPath></defs><path fill="#000000" d="M 541.710938 208.097656 C 527.207031 207.707031 513.09375 208.097656 498.589844 208.097656 L 313.578125 208.097656 C 297.113281 208.097656 281.042969 208.097656 264.578125 208.097656 C 242.628906 207.707031 224.207031 225.742188 223.8125 247.695312 C 223.421875 265.335938 235.179688 281.410156 252.035156 286.507812 C 258.308594 288.074219 264.972656 288.464844 271.242188 288.074219 L 541.316406 288.074219 C 541.316406 288.074219 541.710938 288.074219 541.710938 288.074219 C 563.660156 288.074219 581.691406 270.039062 581.691406 248.085938 C 581.691406 226.132812 563.660156 208.097656 541.710938 208.097656 Z M 571.5 251.222656 C 569.929688 266.511719 556.996094 278.273438 541.710938 278.664062 C 541.710938 278.664062 541.316406 278.664062 541.316406 278.664062 L 268.890625 278.664062 C 261.050781 279.449219 253.210938 277.488281 246.546875 273.570312 C 232.828125 263.769531 229.300781 244.949219 239.101562 230.835938 C 241.453125 227.308594 244.980469 224.171875 248.507812 221.820312 C 254.78125 218.683594 262.226562 217.117188 269.285156 217.898438 L 531.910156 217.898438 C 535.828125 217.898438 540.140625 217.507812 544.0625 217.898438 C 560.917969 219.859375 573.066406 234.757812 571.5 251.222656 Z M 571.5 251.222656 " fill-opacity="1" fill-rule="nonzero"/><path fill="#000000" d="M 533.476562 252.792969 C 537.789062 247.300781 538.179688 239.855469 534.261719 233.582031 C 533.871094 232.796875 533.476562 232.40625 533.085938 232.011719 C 531.125 230.054688 528.773438 228.09375 526.03125 227.308594 C 522.894531 226.132812 519.757812 226.132812 516.621094 226.917969 C 513.488281 227.699219 510.742188 229.660156 508.390625 232.011719 C 506.039062 234.757812 504.863281 237.894531 504.472656 241.8125 C 504.078125 248.480469 507.605469 254.75 513.488281 257.496094 C 516.621094 259.0625 520.148438 259.457031 523.679688 259.0625 C 524.070312 259.0625 524.855469 258.671875 525.246094 258.671875 L 530.339844 266.121094 L 531.519531 267.6875 C 532.300781 268.863281 533.085938 269.648438 534.652344 270.039062 C 535.828125 270.433594 537.398438 270.433594 538.574219 269.648438 C 539.75 268.863281 540.53125 268.082031 540.925781 266.90625 C 541.316406 265.726562 541.316406 264.160156 540.53125 262.984375 Z M 526.03125 246.910156 C 525.636719 247.300781 525.246094 247.695312 526.03125 246.910156 Z M 521.71875 248.871094 C 521.324219 248.871094 521.324219 248.871094 521.71875 248.871094 C 521.324219 248.871094 521.324219 248.871094 521.71875 248.871094 L 519.367188 248.871094 L 518.582031 248.480469 C 518.582031 248.480469 518.191406 248.085938 518.191406 248.480469 C 518.191406 248.480469 517.796875 248.480469 517.796875 248.085938 L 517.015625 247.695312 C 516.230469 246.910156 516.230469 246.910156 515.839844 246.519531 C 515.839844 246.125 515.445312 246.125 515.445312 245.734375 C 515.445312 245.734375 515.054688 245.34375 515.054688 245.34375 C 515.054688 244.949219 514.664062 244.558594 514.664062 243.773438 C 514.664062 243.773438 514.664062 243.382812 514.664062 243.382812 C 514.664062 242.992188 514.664062 242.597656 514.664062 242.207031 C 514.664062 242.207031 514.664062 241.8125 514.664062 241.8125 C 514.664062 241.421875 514.664062 241.03125 515.054688 240.636719 C 515.054688 240.246094 515.445312 240.246094 515.445312 239.855469 L 515.839844 239.070312 C 515.054688 239.855469 515.839844 239.070312 515.839844 238.679688 C 515.839844 238.285156 516.230469 238.285156 516.621094 237.894531 L 517.015625 237.5 C 517.40625 237.109375 517.796875 237.109375 518.191406 236.71875 C 518.582031 236.71875 518.582031 236.71875 518.972656 236.324219 L 519.757812 236.324219 C 520.148438 236.324219 520.542969 236.324219 520.933594 236.324219 L 521.71875 236.324219 L 522.503906 236.71875 C 523.285156 236.71875 523.679688 237.109375 524.070312 237.5 L 524.460938 237.894531 C 524.855469 238.285156 524.855469 238.285156 525.246094 238.679688 C 525.636719 239.070312 525.636719 239.460938 526.03125 239.855469 C 526.03125 240.246094 526.421875 240.246094 526.421875 240.636719 C 526.421875 241.03125 526.421875 242.207031 526.8125 242.207031 C 526.8125 242.207031 526.8125 242.597656 526.8125 242.597656 C 526.8125 242.597656 526.8125 242.597656 526.8125 242.992188 C 526.8125 242.992188 526.8125 243.382812 526.8125 243.382812 C 526.8125 243.382812 526.8125 243.382812 526.8125 243.773438 L 526.421875 244.558594 L 526.421875 244.949219 C 526.03125 245.734375 526.03125 245.734375 525.636719 246.125 C 525.636719 246.125 525.246094 246.519531 525.246094 246.519531 L 524.855469 246.910156 C 524.855469 246.910156 524.855469 246.910156 524.460938 247.300781 C 524.460938 247.300781 524.070312 247.300781 524.070312 247.300781 L 523.285156 247.695312 C 523.285156 247.695312 523.285156 247.695312 522.894531 247.695312 C 522.894531 247.695312 522.503906 247.695312 522.503906 247.695312 C 522.894531 248.871094 522.503906 248.871094 521.71875 248.871094 Z M 521.71875 248.871094 " fill-opacity="1" fill-rule="nonzero"/><path fill="#000000" d="M 312.402344 234.367188 C 312.007812 234.757812 311.226562 235.542969 311.226562 236.324219 C 310.832031 237.109375 310.441406 237.894531 310.441406 239.070312 L 307.699219 247.695312 L 305.738281 239.855469 C 305.34375 238.285156 304.953125 237.109375 304.5625 236.71875 C 304.167969 235.933594 303.386719 234.757812 302.601562 234.367188 C 300.25 232.40625 297.113281 232.40625 294.761719 234.367188 C 293.976562 235.148438 293.195312 235.933594 292.800781 236.71875 C 292.410156 237.5 292.019531 238.285156 291.625 240.246094 L 289.667969 247.695312 L 287.3125 239.070312 C 286.921875 237.894531 286.53125 236.324219 285.746094 235.148438 C 284.960938 233.582031 283.003906 232.796875 281.433594 233.1875 C 279.867188 233.1875 278.691406 233.582031 277.515625 234.757812 C 276.339844 235.542969 275.945312 237.109375 275.945312 238.285156 C 275.945312 239.460938 276.339844 241.03125 276.730469 242.207031 L 282.609375 259.0625 L 283.394531 261.023438 C 283.785156 261.808594 284.179688 262.59375 284.570312 263.375 C 284.960938 264.160156 285.746094 264.945312 286.53125 265.335938 C 287.3125 265.726562 288.492188 266.121094 289.667969 266.121094 C 291.625 266.511719 293.976562 265.335938 295.152344 263.769531 C 295.9375 262.199219 296.722656 260.632812 297.113281 259.0625 L 299.074219 252.398438 L 301.035156 259.0625 C 301.425781 260.238281 301.816406 261.414062 302.210938 262.199219 C 302.601562 263.375 303.386719 264.160156 304.167969 264.945312 C 306.519531 266.511719 309.65625 266.511719 312.007812 264.945312 C 312.792969 264.160156 313.578125 263.375 313.96875 262.59375 C 314.359375 261.808594 314.753906 261.023438 315.144531 259.457031 L 321.023438 242.597656 C 321.417969 241.421875 321.808594 239.855469 321.808594 238.679688 C 321.808594 237.109375 321.023438 235.933594 319.847656 234.757812 C 317.890625 232.40625 314.753906 232.40625 312.402344 234.367188 Z M 312.402344 234.367188 " fill-opacity="1" fill-rule="nonzero"/><path fill="#000000" d="M 362.964844 234.367188 C 362.183594 234.757812 361.789062 235.542969 361.398438 236.71875 C 361.398438 237.109375 361.007812 238.285156 360.613281 239.460938 L 357.871094 248.085938 L 355.910156 240.246094 C 355.519531 239.070312 355.125 237.894531 354.734375 237.109375 C 354.34375 236.324219 353.558594 235.148438 352.773438 234.757812 C 350.421875 233.1875 347.289062 233.1875 344.933594 234.757812 C 344.152344 235.542969 343.367188 236.324219 342.976562 237.109375 C 342.976562 237.894531 342.191406 238.679688 341.800781 240.636719 L 339.839844 248.085938 L 337.488281 239.460938 C 337.097656 238.285156 336.703125 236.71875 335.917969 235.542969 C 335.136719 233.972656 333.175781 233.1875 331.609375 233.582031 C 330.039062 233.582031 328.863281 233.972656 327.6875 235.148438 C 326.902344 235.542969 326.511719 236.71875 326.511719 237.894531 C 326.511719 239.070312 326.902344 240.636719 327.296875 241.8125 L 333.175781 258.671875 L 333.960938 260.632812 C 334.351562 261.414062 334.742188 262.199219 335.136719 262.984375 C 336.3125 264.945312 338.273438 265.726562 340.230469 265.726562 C 342.191406 265.726562 344.152344 264.945312 345.328125 263.375 C 346.109375 261.808594 346.894531 260.238281 347.289062 258.671875 L 349.246094 252.007812 L 351.207031 258.671875 C 351.597656 259.847656 351.992188 261.023438 352.382812 261.808594 C 352.773438 262.984375 353.558594 263.769531 354.34375 264.550781 C 356.695312 266.121094 359.832031 266.121094 362.183594 264.550781 C 362.964844 263.769531 363.75 262.984375 364.140625 262.199219 C 364.535156 261.414062 364.925781 260.632812 365.316406 259.0625 L 371.199219 242.207031 C 371.589844 241.03125 371.980469 239.460938 371.980469 238.285156 C 371.980469 237.109375 371.589844 235.933594 370.414062 234.757812 C 368.0625 232.796875 365.316406 232.796875 362.964844 234.367188 Z M 362.964844 234.367188 " fill-opacity="1" fill-rule="nonzero"/><path fill="#000000" d="M 420.585938 234.757812 C 418.628906 232.796875 415.101562 232.796875 413.140625 234.757812 C 412.746094 235.148438 411.964844 235.933594 411.964844 236.71875 C 411.964844 237.109375 411.570312 238.285156 411.179688 239.460938 L 408.4375 248.085938 L 406.085938 240.246094 C 405.691406 239.070312 405.300781 237.894531 404.910156 237.109375 C 404.515625 236.324219 403.730469 235.148438 402.949219 234.757812 C 400.597656 233.1875 397.460938 233.1875 395.109375 234.757812 C 394.324219 235.542969 393.539062 236.324219 393.148438 237.109375 C 392.757812 237.894531 392.757812 238.679688 391.972656 240.636719 L 389.621094 248.085938 L 387.269531 239.460938 C 386.878906 238.285156 386.484375 236.71875 385.703125 235.542969 C 384.917969 233.972656 382.957031 233.1875 381.390625 233.582031 C 379.820312 233.582031 378.644531 233.972656 377.46875 235.148438 C 376.292969 235.933594 375.902344 237.5 375.902344 238.679688 C 375.902344 239.855469 376.292969 241.421875 376.6875 242.597656 L 382.566406 259.457031 L 383.347656 261.414062 C 383.742188 262.199219 384.132812 262.984375 384.523438 263.769531 C 385.703125 265.726562 387.660156 266.511719 389.621094 266.511719 C 391.582031 266.511719 393.539062 265.726562 394.714844 264.160156 C 395.5 262.59375 396.285156 261.023438 396.675781 259.457031 L 398.636719 252.792969 L 400.597656 259.457031 C 400.988281 260.632812 401.378906 261.808594 401.773438 262.59375 C 402.164062 263.769531 402.949219 264.550781 403.730469 265.335938 C 404.910156 266.121094 406.085938 266.90625 407.652344 266.511719 C 409.21875 266.511719 410.394531 266.121094 411.570312 265.335938 C 412.355469 264.550781 413.140625 263.769531 413.53125 262.984375 C 413.921875 262.199219 414.316406 261.023438 414.707031 259.847656 L 420.585938 242.992188 C 420.980469 241.8125 421.371094 240.246094 421.371094 239.070312 C 422.15625 236.71875 421.761719 235.542969 420.585938 234.757812 Z M 420.585938 234.757812 " fill-opacity="1" fill-rule="nonzero"/><path fill="#000000" d="M 423.332031 255.925781 C 422.15625 257.105469 421.371094 258.671875 421.761719 260.238281 C 421.761719 261.808594 422.546875 263.769531 423.722656 264.945312 C 424.898438 266.121094 426.46875 266.511719 428.035156 266.511719 C 429.601562 266.511719 431.171875 266.121094 432.347656 264.945312 C 433.523438 263.769531 434.308594 262.199219 434.308594 260.238281 C 434.308594 258.671875 433.523438 257.105469 432.347656 255.925781 C 429.210938 253.574219 425.683594 253.574219 423.332031 255.925781 Z M 423.332031 255.925781 " fill-opacity="1" fill-rule="nonzero"/><g clip-path="url(#868ea05ea2)"><path fill="#000000" d="M 630.296875 51.285156 C 625.59375 50.5 620.496094 50.109375 615.792969 50.5 L 194.023438 50.5 C 188.925781 50.109375 184.222656 50.5 179.128906 51.675781 C 165.015625 55.597656 158.351562 68.535156 158.351562 82.253906 L 158.351562 371.578125 C 158.351562 384.90625 163.839844 397.058594 177.167969 401.765625 C 183.046875 403.332031 189.320312 404.117188 195.589844 403.332031 L 508.78125 403.332031 L 516.230469 466.84375 L 517.796875 481.347656 C 518.191406 485.660156 524.855469 488.796875 526.8125 483.699219 L 549.546875 434.304688 L 602.074219 439.398438 C 603.25 440.183594 604.425781 439.792969 605.601562 439.398438 C 607.953125 438.617188 608.738281 436.265625 608.34375 433.910156 C 608.34375 432.734375 607.5625 431.558594 606.386719 430.382812 L 569.539062 402.941406 L 616.578125 402.941406 C 622.066406 403.332031 627.945312 402.546875 633.039062 400.980469 C 645.976562 395.882812 651.464844 383.730469 651.464844 370.792969 L 651.464844 81.863281 C 651.464844 67.75 644.40625 54.8125 630.296875 51.285156 Z M 168.152344 78.726562 C 168.152344 68.925781 175.601562 60.695312 185.398438 59.910156 C 196.375 59.125 207.351562 59.910156 217.933594 59.910156 L 588.746094 59.910156 C 600.113281 59.910156 611.480469 59.519531 623.242188 59.910156 C 633.433594 59.910156 641.664062 68.140625 642.054688 78.726562 L 642.054688 114.792969 L 222.636719 114.792969 C 204.605469 114.792969 186.183594 114.011719 168.152344 114.792969 L 168.152344 83.433594 C 168.152344 81.863281 168.152344 80.296875 168.152344 78.726562 Z M 542.492188 426.460938 L 525.636719 462.921875 L 515.839844 378.632812 L 515.445312 374.714844 L 551.117188 401.371094 C 551.117188 401.371094 551.507812 401.765625 551.902344 401.765625 L 586.785156 427.640625 L 546.414062 423.71875 C 544.84375 424.109375 543.277344 424.894531 542.492188 426.460938 Z M 641.664062 373.929688 C 641.664062 382.164062 636.175781 389.613281 628.335938 392.355469 C 623.632812 393.140625 618.929688 393.53125 614.226562 393.140625 L 556.210938 393.140625 L 523.285156 368.832031 L 511.527344 360.207031 C 509.175781 359.03125 506.039062 359.816406 504.863281 362.167969 C 504.472656 362.953125 504.078125 363.738281 504.078125 364.519531 L 507.214844 393.53125 L 198.335938 393.53125 C 194.414062 393.53125 190.496094 393.53125 186.96875 393.53125 C 176.777344 393.53125 168.542969 385.300781 168.152344 374.714844 C 168.152344 373.539062 168.152344 371.96875 168.152344 370.792969 L 168.152344 124.59375 L 587.179688 124.59375 C 605.210938 124.59375 623.632812 125.378906 641.664062 124.59375 L 641.664062 368.832031 C 641.664062 370.792969 641.664062 372.363281 641.664062 373.929688 Z M 641.664062 373.929688 " fill-opacity="1" fill-rule="nonzero"/></g><path fill="#000000" d="M 220.285156 100.289062 C 223.03125 97.152344 224.207031 93.625 224.207031 89.703125 C 224.207031 82.648438 219.894531 76.375 213.230469 74.023438 C 206.957031 71.671875 199.511719 73.632812 195.199219 78.726562 C 189.320312 85.785156 190.101562 95.976562 196.765625 102.25 C 203.824219 108.128906 214.015625 107.347656 220.285156 100.289062 Z M 214.40625 88.527344 C 214.40625 88.921875 214.40625 88.921875 214.40625 88.921875 C 214.40625 88.921875 214.40625 88.921875 214.40625 88.527344 Z M 200.6875 88.921875 C 200.6875 88.527344 200.6875 88.527344 200.6875 88.136719 C 200.6875 87.746094 201.078125 86.960938 201.078125 86.566406 C 201.078125 86.175781 201.472656 86.175781 201.472656 85.785156 C 201.472656 85.390625 201.863281 85.390625 201.863281 85 C 202.253906 84.609375 202.648438 84.214844 203.039062 83.824219 L 203.429688 83.824219 C 203.039062 84.214844 203.429688 83.824219 203.824219 83.824219 C 204.214844 83.433594 205 83.433594 205.390625 83.039062 C 205.390625 83.039062 204.214844 83.433594 205 83.039062 L 205.78125 82.648438 L 206.175781 82.648438 C 206.175781 82.648438 206.175781 82.648438 206.566406 82.648438 C 206.566406 82.648438 206.957031 82.648438 206.957031 82.648438 L 208.527344 82.648438 L 210.488281 83.039062 C 211.269531 83.433594 211.269531 83.433594 211.269531 83.433594 L 211.664062 83.824219 L 212.839844 85 L 213.230469 85.785156 C 213.230469 86.175781 213.621094 86.175781 213.621094 86.566406 C 213.621094 87.351562 214.015625 87.351562 214.015625 87.746094 C 214.015625 88.136719 213.621094 88.527344 213.621094 88.921875 C 213.621094 89.3125 213.621094 89.3125 213.621094 89.703125 C 213.621094 89.703125 213.230469 90.878906 213.230469 91.273438 C 213.230469 91.273438 213.230469 91.664062 213.230469 91.664062 C 213.230469 91.664062 213.230469 91.664062 212.839844 92.058594 C 212.445312 92.449219 212.054688 93.234375 212.054688 93.625 C 212.054688 93.625 211.664062 94.015625 211.664062 94.015625 C 211.664062 94.015625 211.269531 94.410156 211.269531 94.410156 C 210.878906 94.410156 210.484375 95.191406 210.09375 95.191406 L 209.703125 95.585938 L 208.132812 95.976562 C 208.132812 95.976562 207.742188 95.976562 207.742188 95.976562 C 207.742188 95.976562 207.351562 95.976562 207.351562 95.976562 C 206.957031 95.976562 206.566406 95.976562 205.78125 95.976562 L 205 95.976562 L 204.214844 95.585938 C 203.429688 95.191406 204.605469 95.585938 204.605469 95.585938 C 204.214844 95.191406 203.824219 95.191406 203.429688 94.800781 L 202.648438 94.410156 C 201.863281 93.625 201.863281 93.625 201.472656 93.234375 L 201.078125 92.449219 L 201.078125 91.664062 C 200.6875 91.273438 201.078125 91.273438 201.078125 92.058594 C 201.078125 91.664062 200.6875 90.878906 200.6875 90.488281 L 200.6875 89.703125 C 200.6875 89.703125 200.6875 89.3125 200.6875 88.921875 Z M 200.6875 88.921875 " fill-opacity="1" fill-rule="nonzero"/><path fill="#000000" d="M 200.6875 88.921875 C 201.078125 87.746094 200.6875 88.527344 200.6875 88.921875 Z M 200.6875 88.921875 " fill-opacity="1" fill-rule="nonzero"/><path fill="#000000" d="M 207.742188 96.367188 L 208.132812 96.367188 C 208.132812 95.976562 207.742188 95.976562 207.742188 96.367188 Z M 207.742188 96.367188 " fill-opacity="1" fill-rule="nonzero"/><path fill="#000000" d="M 240.277344 88.527344 C 240.667969 87.351562 240.277344 88.136719 240.277344 88.527344 Z M 240.277344 88.527344 " fill-opacity="1" fill-rule="nonzero"/><path fill="#000000" d="M 259.875 100.289062 C 262.621094 97.152344 263.796875 93.625 263.796875 89.703125 C 263.796875 82.648438 259.089844 76.375 252.820312 74.023438 C 246.546875 71.671875 239.101562 73.632812 234.789062 78.726562 C 228.910156 85.785156 229.691406 95.976562 236.355469 102.25 C 243.414062 108.128906 253.996094 107.347656 259.875 100.289062 Z M 253.996094 88.527344 C 253.996094 88.921875 253.996094 88.921875 253.996094 88.921875 C 253.996094 88.527344 253.996094 88.527344 253.996094 88.527344 Z M 240.277344 88.527344 C 240.277344 88.136719 240.277344 88.136719 240.277344 87.746094 C 240.277344 87.351562 240.667969 86.566406 240.667969 86.175781 L 241.0625 85.390625 L 241.453125 84.609375 C 241.84375 83.824219 241.453125 84.609375 241.453125 84.609375 C 241.84375 84.214844 242.238281 83.824219 242.628906 83.433594 C 242.628906 83.433594 243.019531 83.433594 243.019531 83.433594 C 243.414062 83.039062 244.195312 83.039062 244.589844 82.648438 C 244.589844 82.648438 243.414062 83.039062 244.195312 82.648438 L 244.980469 82.253906 L 245.371094 82.253906 C 245.371094 82.253906 245.371094 82.253906 245.765625 82.253906 C 245.765625 82.253906 246.15625 82.253906 246.15625 82.253906 L 248.117188 82.253906 L 250.078125 82.648438 C 250.859375 83.039062 250.859375 83.039062 250.859375 83.039062 L 251.253906 83.433594 L 251.644531 83.433594 L 252.820312 84.609375 L 253.210938 85.390625 L 253.605469 86.175781 C 253.996094 86.960938 253.996094 87.351562 253.996094 87.746094 C 253.996094 88.136719 253.605469 88.527344 253.605469 88.921875 C 253.605469 89.3125 253.605469 89.3125 253.605469 89.703125 C 253.605469 90.097656 253.210938 90.878906 253.210938 91.273438 C 253.210938 91.273438 253.210938 91.664062 253.210938 91.664062 C 253.210938 91.664062 253.210938 91.664062 252.820312 92.058594 C 252.429688 92.839844 252.035156 93.234375 252.035156 93.625 C 252.035156 93.625 251.644531 94.015625 251.644531 94.015625 L 251.253906 94.410156 C 250.859375 94.410156 250.078125 95.191406 250.078125 95.191406 L 249.683594 95.191406 L 248.117188 95.976562 C 248.117188 95.976562 247.722656 95.976562 247.722656 95.976562 C 247.722656 95.976562 247.332031 95.976562 247.332031 95.976562 C 246.941406 95.976562 246.15625 95.976562 245.765625 95.976562 L 244.980469 95.585938 L 244.195312 95.585938 C 243.414062 95.191406 244.589844 95.585938 244.589844 95.585938 C 244.195312 95.191406 243.804688 95.191406 243.019531 94.800781 C 243.019531 94.800781 242.628906 94.410156 242.238281 94.410156 C 242.238281 94.410156 241.0625 93.234375 241.0625 93.234375 L 240.277344 92.449219 C 240.277344 92.449219 239.886719 91.273438 239.886719 90.878906 C 239.886719 90.488281 239.886719 90.488281 239.886719 90.097656 C 240.277344 89.703125 240.277344 88.921875 240.277344 88.527344 Z M 240.277344 88.527344 " fill-opacity="1" fill-rule="nonzero"/><path fill="#000000" d="M 299.859375 100.289062 C 302.601562 97.152344 303.777344 93.625 303.777344 89.703125 C 303.777344 82.648438 299.464844 76.375 292.800781 74.023438 C 286.53125 71.671875 279.082031 73.632812 274.769531 78.726562 C 268.890625 85.785156 269.675781 95.976562 276.339844 102.25 C 283.394531 108.128906 293.585938 107.347656 299.859375 100.289062 Z M 293.976562 88.527344 Z M 280.257812 88.527344 L 280.257812 87.746094 C 280.257812 87.351562 280.652344 86.566406 280.652344 86.175781 L 281.042969 85.390625 C 281.042969 85 281.433594 85 281.433594 84.609375 C 281.828125 84.214844 282.21875 83.824219 282.609375 83.433594 L 283.003906 83.039062 C 282.609375 83.433594 283.003906 83.039062 283.394531 83.039062 C 283.785156 82.648438 284.570312 82.648438 284.960938 82.253906 C 284.960938 82.253906 283.785156 82.648438 284.570312 82.253906 L 285.355469 81.863281 L 285.746094 81.863281 C 285.746094 81.863281 285.746094 81.863281 286.136719 81.863281 C 286.136719 81.863281 286.53125 81.863281 286.53125 81.863281 L 288.097656 81.863281 L 290.058594 82.253906 C 290.449219 82.253906 290.84375 82.648438 290.84375 82.648438 L 291.234375 83.824219 L 292.410156 85 L 292.800781 85.785156 L 293.195312 86.566406 C 293.585938 87.351562 293.585938 87.746094 293.585938 88.136719 C 293.585938 88.527344 293.195312 88.921875 293.195312 89.3125 C 293.195312 89.703125 293.195312 89.703125 293.195312 90.097656 C 293.195312 90.488281 292.800781 91.273438 292.800781 91.664062 C 292.800781 91.664062 292.800781 92.058594 292.800781 92.058594 L 292.019531 93.625 C 292.019531 93.625 291.625 94.015625 291.625 94.015625 C 291.625 94.015625 291.234375 94.410156 291.234375 94.410156 C 290.84375 94.410156 290.449219 95.191406 290.058594 95.191406 L 289.273438 95.585938 L 287.707031 95.976562 C 287.707031 95.976562 287.3125 95.976562 287.3125 95.976562 C 287.3125 95.976562 287.3125 95.976562 286.921875 95.976562 C 286.53125 95.976562 286.136719 95.976562 285.355469 95.976562 L 284.570312 95.585938 L 284.179688 95.585938 C 283.394531 95.191406 284.570312 95.585938 284.570312 95.585938 C 284.179688 95.191406 283.785156 95.191406 283.394531 94.800781 L 282.609375 94.410156 C 281.828125 93.625 281.828125 93.625 281.433594 93.234375 L 281.042969 92.449219 L 280.652344 92.058594 L 280.652344 91.664062 C 280.652344 91.273438 280.652344 91.273438 280.652344 91.664062 C 280.652344 91.273438 280.257812 90.878906 280.257812 90.488281 C 280.257812 90.097656 280.257812 90.097656 280.257812 89.703125 C 280.257812 89.703125 280.257812 88.921875 280.257812 88.527344 Z M 281.433594 85 C 281.433594 84.609375 281.433594 84.609375 281.433594 85 Z M 281.433594 85 " fill-opacity="1" fill-rule="nonzero"/><path fill="#000000" d="M 287.3125 96.367188 C 287.707031 96.367188 287.707031 96.367188 287.3125 96.367188 L 287.707031 96.367188 C 287.707031 95.976562 287.3125 95.976562 287.3125 96.367188 Z M 287.3125 96.367188 " fill-opacity="1" fill-rule="nonzero"/></svg>